<svg width="31" height="46" viewBox="0 0 31 46" fill="none" xmlns="http://www.w3.org/2000/svg">
<path d="M3.90333 36.362C7.80733 33.1087 10.9183 30.4043 13.2363 28.249C15.5543 26.053 17.486 23.7757 19.0313 21.417C20.5767 19.0583 21.3493 16.7403 21.3493 14.463C21.3493 12.389 20.8613 10.7623 19.8853 9.583C18.9093 8.40366 17.4047 7.814 15.3713 7.814C13.338 7.814 11.7723 8.50533 10.6743 9.888C9.57633 11.23 9.007 13.0803 8.96633 15.439H0.670328C0.832995 10.559 2.27666 6.85833 5.00133 4.337C7.76666 1.81566 11.264 0.554996 15.4933 0.554996C20.1293 0.554996 23.6877 1.79533 26.1683 4.276C28.649 6.716 29.8893 9.949 29.8893 13.975C29.8893 17.147 29.0353 20.1767 27.3273 23.064C25.6193 25.9513 23.6673 28.4727 21.4713 30.628C19.2753 32.7427 16.4083 35.3047 12.8703 38.314H30.8653V45.39H0.731328V39.046L3.90333 36.362Z" fill="#6120E3"/>
</svg>
