<svg width="32" height="47" viewBox="0 0 32 47" fill="none" xmlns="http://www.w3.org/2000/svg">
<path d="M1.5967 13.243C1.80003 9.17633 3.22337 6.045 5.8667 3.849C8.5507 1.61233 12.0684 0.493997 16.4197 0.493997C19.3884 0.493997 21.93 1.02266 24.0447 2.08C26.1594 3.09666 27.7454 4.49966 28.8027 6.289C29.9007 8.03766 30.4497 10.0303 30.4497 12.267C30.4497 14.829 29.7787 17.0047 28.4367 18.794C27.1354 20.5427 25.5697 21.722 23.7397 22.332V22.576C26.0984 23.308 27.9284 24.6093 29.2297 26.48C30.5717 28.3507 31.2427 30.75 31.2427 33.678C31.2427 36.118 30.6734 38.2937 29.5347 40.205C28.4367 42.1163 26.7897 43.621 24.5937 44.719C22.4384 45.7763 19.8357 46.305 16.7857 46.305C12.1904 46.305 8.44903 45.146 5.5617 42.828C2.67437 40.51 1.14937 37.094 0.986699 32.58H9.2827C9.36403 34.5727 10.035 36.179 11.2957 37.399C12.597 38.5783 14.366 39.168 16.6027 39.168C18.6767 39.168 20.2627 38.5987 21.3607 37.46C22.4994 36.2807 23.0687 34.776 23.0687 32.946C23.0687 30.506 22.296 28.7573 20.7507 27.7C19.2054 26.6427 16.806 26.114 13.5527 26.114H11.7837V19.099H13.5527C19.3274 19.099 22.2147 17.1673 22.2147 13.304C22.2147 11.5553 21.686 10.193 20.6287 9.217C19.612 8.241 18.1277 7.753 16.1757 7.753C14.2644 7.753 12.78 8.28167 11.7227 9.339C10.706 10.3557 10.1164 11.657 9.9537 13.243H1.5967Z" fill="#6120E3"/>
</svg>
