<svg width="62" height="62" viewBox="0 0 62 62" fill="none" xmlns="http://www.w3.org/2000/svg">
<path d="M54.8585 43.6543C54.5185 43.5134 54.1271 43.5912 53.8667 43.8515L43.9218 53.7964C43.6615 54.0568 43.5837 54.4481 43.7246 54.7882C43.8654 55.1283 44.1974 55.3499 44.5654 55.3499H54.5103C55.013 55.3499 55.4204 54.9426 55.4204 54.4399V44.495C55.4202 44.127 55.1985 43.7952 54.8585 43.6543ZM46.762 53.53L53.6001 46.692V53.53H46.762Z" fill="white"/>
<path d="M61.4382 29.0682C61.0982 28.9272 60.7068 29.0051 60.4465 29.2653L57.721 31.9908V13.4597C57.721 12.957 57.3135 12.5497 56.811 12.5497H49.8189L52.3571 10.0115C52.3574 10.0112 52.3578 10.0107 52.3582 10.0103L54.8038 7.56473C55.3277 7.04075 55.6163 6.34374 55.6163 5.60265C55.6163 4.86155 55.3277 4.16478 54.8038 3.64056L51.9757 0.812539C51.4518 0.288566 50.7547 0 50.0137 0C49.2726 0 48.5757 0.288566 48.0516 0.812539L45.6048 3.25936L42.6481 6.21599L36.3146 12.5496H8.06727V3.54684C8.06727 3.04418 7.65979 2.63682 7.15725 2.63682C3.2108 2.63706 0 5.84762 0 9.79431V48.4457C0 48.5129 0.00775 48.5783 0.0215547 48.6413C0.14725 50.3159 0.871754 51.8718 2.08257 53.053C3.37682 54.3153 5.08533 55.0105 6.8935 55.0105H34.7012L29.464 60.2477C29.2038 60.508 29.126 60.8993 29.2668 61.2394C29.4076 61.5794 29.7395 61.8012 30.1075 61.8012H61.09C61.5925 61.8012 62 61.3938 62 60.8912V29.9089C62 29.5409 61.7782 29.209 61.4382 29.0682ZM49.3388 2.09964C49.7108 1.7274 50.3169 1.7274 50.6889 2.09964L53.517 4.92779C53.8893 5.29991 53.8893 5.90574 53.517 6.27799L51.7138 8.08131L47.5354 3.90297L49.3388 2.09964ZM46.2484 5.18996L50.4267 9.36818L48.7569 11.0379L44.5788 6.85972L46.2484 5.18996ZM60.1802 40.1343H58.5012C57.9986 40.1343 57.5912 40.5417 57.5912 41.0444C57.5912 41.547 57.9986 41.9544 58.5012 41.9544H60.1802V44.6967H58.5012C57.9986 44.6967 57.5912 45.104 57.5912 45.6067C57.5912 46.1094 57.9986 46.5167 58.5012 46.5167H60.1802V49.2589H58.5012C57.9986 49.2589 57.5912 49.6662 57.5912 50.1689C57.5912 50.6716 57.9986 51.0789 58.5012 51.0789H60.1802V53.8212H58.5012C57.9986 53.8212 57.5912 54.2287 57.5912 54.7312C57.5912 55.2339 57.9986 55.6413 58.5012 55.6413H60.1802V59.9815H32.3044L41.4964 50.7896C41.8518 50.4341 41.8518 49.8581 41.4964 49.5026C41.4556 49.4618 41.4118 49.4265 41.3659 49.395C41.0115 49.1523 40.524 49.188 40.2093 49.5026L36.5213 53.1907H6.89363C4.13366 53.1907 1.91183 51.0359 1.8244 48.2809C1.82961 48.108 1.84305 47.9365 1.8646 47.767C1.86472 47.766 1.86484 47.7651 1.86496 47.7641C1.87514 47.6836 1.88737 47.6034 1.90129 47.5237C1.90287 47.5146 1.90456 47.5056 1.90614 47.4965C1.91885 47.4254 1.93314 47.3547 1.94876 47.2842C1.95312 47.2646 1.95772 47.245 1.96232 47.2255C1.97613 47.1659 1.99102 47.1067 2.00701 47.0477C2.01573 47.0157 2.02481 46.9841 2.03413 46.9523C2.04745 46.906 2.06126 46.8599 2.07591 46.8142C2.09056 46.7686 2.10618 46.7234 2.12205 46.6783C2.13307 46.6466 2.14396 46.615 2.15583 46.5837C2.17799 46.5241 2.20148 46.4651 2.2257 46.4066C2.23261 46.3898 2.23939 46.3727 2.24653 46.3559C2.27765 46.2832 2.30998 46.2114 2.34413 46.1405C2.34559 46.1375 2.34692 46.1344 2.34837 46.1314C3.06016 44.6584 4.42913 43.5602 6.072 43.2195C6.07661 43.2185 6.08121 43.2174 6.08581 43.2164C6.16113 43.201 6.23718 43.1878 6.31371 43.1756C6.32642 43.1736 6.33914 43.171 6.35209 43.1691C6.42124 43.1585 6.49111 43.1503 6.56098 43.1424C6.5806 43.1403 6.60009 43.1372 6.61983 43.1353C6.68728 43.1285 6.75534 43.124 6.82339 43.1198C6.84495 43.1185 6.8665 43.1162 6.88805 43.1151C6.97718 43.1106 7.06703 43.1083 7.15725 43.1083C7.65979 43.1083 8.06727 42.7009 8.06727 42.1983V35.6C8.06727 35.0973 7.65979 34.69 7.15725 34.69C6.65471 34.69 6.24723 35.0973 6.24723 35.6V41.3455C4.71055 41.5399 3.28418 42.2253 2.15946 43.3236C2.04116 43.4391 1.92902 43.5592 1.8198 43.6813V9.79431C1.8198 7.16161 3.73623 4.96775 6.24711 4.53448V13.4597V31.96V31.9602C6.24711 32.4627 6.65459 32.8702 7.15712 32.8702C7.65966 32.8702 8.06715 32.4627 8.06715 31.9602V31.96V14.3697H34.4946L29.4639 19.4004C29.1085 19.756 29.1085 20.332 29.4639 20.6874C29.8193 21.0427 30.3955 21.0427 30.7508 20.6874L37.335 14.1032C37.3353 14.1029 37.3354 14.1027 37.3356 14.1026L43.2916 8.14658L47.4697 12.3249L46.9795 12.8151C46.9792 12.8155 46.9787 12.8158 46.9783 12.8162L28.6292 31.1655L24.451 26.9873L28.0678 23.3705C28.4232 23.015 28.4232 22.4389 28.0678 22.0835C27.7124 21.7282 27.1363 21.7282 26.781 22.0835L22.5205 26.3438C22.4978 26.3666 22.4765 26.3907 22.4565 26.4154C22.4498 26.4236 22.4439 26.4325 22.4376 26.4411C22.4247 26.4581 22.4122 26.4753 22.4004 26.4933C22.3937 26.5037 22.3877 26.5143 22.3814 26.5251C22.3713 26.5421 22.3617 26.5593 22.3528 26.5768C22.347 26.5882 22.3418 26.5997 22.3365 26.6116C22.3284 26.6294 22.3208 26.6475 22.3139 26.6657C22.3115 26.6721 22.3084 26.6782 22.3061 26.6846L20.5331 31.7069L19.3244 35.1314C19.3084 35.1769 19.2969 35.2231 19.2883 35.2698H16.2619C15.7594 35.2698 15.3519 35.6771 15.3519 36.1798C15.3519 36.6824 15.7594 37.0898 16.2619 37.0898H41.4632C41.9659 37.0898 42.3732 36.6824 42.3732 36.1798C42.3732 35.6771 41.9659 35.2698 41.4632 35.2698H23.3824L28.9321 33.3107C28.9367 33.309 28.941 33.3067 28.9456 33.305C28.9672 33.297 28.9884 33.2881 29.0093 33.2785C29.0177 33.2746 29.0261 33.271 29.0342 33.267C29.056 33.2561 29.0774 33.2441 29.0985 33.2313C29.1052 33.2272 29.1123 33.2234 29.1189 33.2192C29.1408 33.2051 29.1622 33.1897 29.1831 33.1735C29.1883 33.1695 29.1938 33.166 29.1989 33.1619C29.2242 33.1415 29.249 33.1196 29.2725 33.0961L47.9989 14.3698H55.9009V33.811L42.8838 46.8282C42.5284 47.1837 42.5284 47.7597 42.8838 48.1152C42.9059 48.1373 42.9291 48.1581 42.9529 48.1776C43.1198 48.3136 43.3236 48.3817 43.5273 48.3817C43.7309 48.3817 43.9349 48.3136 44.1016 48.1776C44.1255 48.1583 44.1486 48.1373 44.1708 48.1152C44.1711 48.1148 44.1708 48.1152 44.1711 48.1148L60.1802 32.1056V40.1343ZM26.9648 32.0748L24.3581 32.995L22.6214 31.2583L23.5416 28.6516L26.9648 32.0748Z" fill="white"/>
</svg>
