<svg width="64" height="59" viewBox="0 0 64 59" fill="none" xmlns="http://www.w3.org/2000/svg">
<path d="M4.21428 50.5714H6.32142V48.4643H4.21428C3.05035 48.4643 2.10714 47.521 2.10714 46.3571V4.21428C2.10714 3.05035 3.05035 2.10714 4.21428 2.10714H50.5714C51.7353 2.10714 52.6785 3.05035 52.6785 4.21428V6.32142H54.7857V4.21428C54.7857 1.88695 52.8987 0 50.5714 0H4.21428C1.88695 0 0 1.88695 0 4.21428V46.3571C0 48.6845 1.88695 50.5714 4.21428 50.5714Z" fill="white"/>
<path d="M4.2124 4.21436H6.31954V6.3215H4.2124V4.21436Z" fill="white"/>
<path d="M8.4292 4.21436H10.5363V6.3215H8.4292V4.21436Z" fill="white"/>
<path d="M12.6416 4.21436H14.7487V6.3215H12.6416V4.21436Z" fill="white"/>
<path d="M8.4292 54.7856C8.4292 57.1129 10.3161 58.9999 12.6435 58.9999H59.0006C61.3279 58.9999 63.2149 57.1129 63.2149 54.7856V12.6427C63.2149 10.3154 61.3279 8.42847 59.0006 8.42847H12.6435C10.3161 8.42847 8.4292 10.3154 8.4292 12.6427V54.7856ZM10.5363 12.6427C10.5363 11.4788 11.4795 10.5356 12.6435 10.5356H59.0006C60.1645 10.5356 61.1077 11.4788 61.1077 12.6427V54.7856C61.1077 55.9495 60.1645 56.8927 59.0006 56.8927H12.6435C11.4795 56.8927 10.5363 55.9495 10.5363 54.7856V12.6427Z" fill="white"/>
<path d="M12.6416 12.6428H14.7487V14.75H12.6416V12.6428Z" fill="white"/>
<path d="M16.8584 12.6428H18.9655V14.75H16.8584V12.6428Z" fill="white"/>
<path d="M21.0708 12.6428H23.1779V14.75H21.0708V12.6428Z" fill="white"/>
<path d="M12.6416 16.8572H58.9987V18.9643H12.6416V16.8572Z" fill="white"/>
<path d="M12.6416 22.125H21.0702V24.2321H12.6416V22.125Z" fill="white"/>
<path d="M12.6416 26.3391H18.963V28.4463H12.6416V26.3391Z" fill="white"/>
<path d="M35.8193 30.5535C31.746 30.5535 28.4443 33.8551 28.4443 37.9285C28.4443 42.0018 31.746 45.3035 35.8193 45.3035C39.8927 45.3035 43.1943 42.0018 43.1943 37.9285C43.1896 33.8575 39.8903 30.5582 35.8193 30.5535ZM35.8193 43.1963C32.9102 43.1963 30.5515 40.8376 30.5515 37.9285C30.5515 35.0193 32.9102 32.6606 35.8193 32.6606C38.7285 32.6606 41.0872 35.0193 41.0872 37.9285C41.0835 40.8363 38.7272 43.1926 35.8193 43.1963Z" fill="white"/>
<path d="M52.6786 34.768C52.6786 34.1859 52.2072 33.7144 51.6251 33.7144H48.8405C48.6174 33.0222 48.3392 32.3487 48.0071 31.7021L49.9762 29.7343C50.3871 29.3226 50.3871 28.6559 49.9762 28.2442L45.5059 23.7739C45.0942 23.363 44.4276 23.363 44.0159 23.7739L42.0481 25.742C41.4004 25.4112 40.7274 25.133 40.0358 24.9097V22.1251C40.0358 21.543 39.5643 21.0715 38.9822 21.0715H32.6608C32.0787 21.0715 31.6072 21.543 31.6072 22.1251V24.9097C30.9155 25.133 30.2426 25.4112 29.5949 25.742L27.6271 23.7739C27.2154 23.363 26.5487 23.363 26.1371 23.7739L21.6668 28.2442C21.2559 28.6559 21.2559 29.3226 21.6668 29.7343L23.6348 31.7021C23.5469 31.8746 23.462 32.0476 23.382 32.2225C23.1597 32.7082 22.9663 33.206 22.8025 33.7144H20.0179C19.4358 33.7144 18.9644 34.1859 18.9644 34.768V41.0894C18.9644 41.6715 19.4358 42.143 20.0179 42.143H22.8025C23.0256 42.8351 23.3038 43.5086 23.6359 44.1553L21.6668 46.1231C21.2559 46.5348 21.2559 47.2014 21.6668 47.6131L26.1371 52.0834C26.5487 52.4943 27.2154 52.4943 27.6271 52.0834L29.5949 50.1153C30.2426 50.4461 30.9155 50.7243 31.6072 50.9476V53.7322C31.6072 54.3143 32.0787 54.7858 32.6608 54.7858H38.9822C39.5643 54.7858 40.0358 54.3143 40.0358 53.7322V50.9476C40.7274 50.7243 41.4004 50.4461 42.0481 50.1153L44.0159 52.0834C44.4276 52.4943 45.0942 52.4943 45.5059 52.0834L49.9762 47.6131C50.3871 47.2014 50.3871 46.5348 49.9762 46.1231L48.0071 44.1553C48.3392 43.5086 48.6174 42.8351 48.8405 42.143H51.6251C52.2072 42.143 52.6786 41.6715 52.6786 41.0894V34.768ZM50.5715 40.0358H48.0492C47.5688 40.0358 47.1495 40.3611 47.0294 40.826C46.7602 41.8717 46.3453 42.8752 45.7967 43.8055C45.5525 44.219 45.6197 44.7458 45.9589 45.0856L47.7403 46.868L44.7608 49.8488L42.9784 48.0661C42.6384 47.7263 42.1116 47.6594 41.6978 47.9039C40.7675 48.4525 39.7645 48.8676 38.7188 49.1366C38.2539 49.2567 37.9286 49.676 37.9286 50.1564V52.6787H33.7143V50.1564C33.7143 49.676 33.3891 49.2567 32.9242 49.1366C31.8785 48.8676 30.8755 48.4525 29.9452 47.9039C29.5314 47.6594 29.0046 47.7263 28.6646 48.0661L26.8822 49.8488L23.9027 46.868L25.684 45.0856C26.0233 44.7458 26.0904 44.219 25.8463 43.8055C25.2976 42.8752 24.8828 41.8717 24.6136 40.826C24.4935 40.3611 24.0742 40.0358 23.5937 40.0358H21.0715V35.8215H23.5937C24.0742 35.8215 24.4935 35.4962 24.6136 35.0313C24.7838 34.3681 25.0132 33.7223 25.2987 33.1004C25.4633 32.7398 25.6461 32.3882 25.8463 32.0468C26.0897 31.6331 26.023 31.1071 25.684 30.7675L23.9027 28.9852L26.8822 26.0044L28.6646 27.7875C29.0046 28.1273 29.5314 28.1937 29.9452 27.949C30.8755 27.4009 31.8785 26.9852 32.9242 26.7163C33.3891 26.5965 33.7143 26.1766 33.7143 25.697V23.1787H37.9286V25.7009C37.9286 26.1814 38.2539 26.6007 38.7188 26.7208C39.7645 26.9897 40.7675 27.4048 41.6978 27.9535C42.1116 28.1979 42.6384 28.131 42.9784 27.7912L44.7608 26.0086L47.7403 28.9894L45.9589 30.7718C45.6197 31.1115 45.5525 31.6383 45.7967 32.0518C46.3453 32.9822 46.7602 33.9857 47.0294 35.0313C47.1495 35.4962 47.5688 35.8215 48.0492 35.8215H50.5715V40.0358Z" fill="white"/>
<path d="M52.6768 52.6785H58.9982V54.7856H52.6768V52.6785Z" fill="white"/>
</svg>
