<svg width="62" height="55" viewBox="0 0 62 55" fill="none" xmlns="http://www.w3.org/2000/svg">
<path d="M3.97607 4.25293C3.97607 4.75462 4.38259 5.16113 4.88428 5.16113H12.7096C13.2113 5.16113 13.6178 4.75462 13.6178 4.25293C13.6178 3.75124 13.2113 3.34473 12.7096 3.34473H4.88428C4.38271 3.34473 3.97607 3.75124 3.97607 4.25293Z" fill="white"/>
<path d="M59.7684 0.000121258H13.2149C12.7132 0.000121258 12.3067 0.406632 12.3067 0.908322C12.3067 1.41001 12.7132 1.81652 13.2149 1.81652H59.7684C59.9972 1.81652 60.1835 2.00277 60.1835 2.23175V6.68933H1.8164V2.23163C1.8164 2.00264 2.00264 1.8164 2.23163 1.8164H9.58383C10.0855 1.8164 10.492 1.40989 10.492 0.908201C10.492 0.406511 10.0855 0 9.58383 0H2.23163C1.00108 0.000121094 0 1.00108 0 2.23163V52.7378C0 53.9682 1.00108 54.9693 2.23163 54.9693H59.7685C60.9989 54.9693 62 53.9682 62 52.7378V47.0821C62 46.5804 61.5935 46.1739 61.0918 46.1739C60.5901 46.1739 60.1836 46.5804 60.1836 47.0821V52.7378C60.1836 52.9667 59.9974 53.1529 59.7685 53.1529H2.23163C2.00264 53.1529 1.8164 52.9667 1.8164 52.7378V8.50561H60.1835V43.4509C60.1835 43.9526 60.59 44.3591 61.0917 44.3591C61.5934 44.3591 61.9999 43.9526 61.9999 43.4509V2.23163C61.9999 1.00108 60.9988 0.000121258 59.7684 0.000121258Z" fill="white"/>
<path d="M41.9782 26.025C41.979 26.0242 41.9796 26.0233 41.9805 26.0225L46.6193 21.3838C48.3388 19.6641 48.3388 16.866 46.6192 15.1465C44.8997 13.427 42.1014 13.4272 40.3819 15.1465L31.9594 23.569C31.6358 23.5375 31.309 23.5268 30.9807 23.5415C29.0627 23.628 27.2607 24.5189 26.0366 25.9859C25.6923 26.3986 25.5079 26.6396 25.0471 27.2288C24.7338 27.6205 24.7974 28.192 25.1893 28.5053C25.5811 28.8186 26.1525 28.755 26.4657 28.3631C26.4754 28.3503 27.0915 27.557 27.4313 27.1496C28.3425 26.0575 29.6322 25.4207 31.0624 25.3561C32.4939 25.2924 33.895 25.8354 34.9075 26.8481L34.9174 26.858C35.9301 27.8706 36.474 29.2723 36.4096 30.7032C36.3451 32.1336 35.7081 33.4231 34.6158 34.3345C34.3043 34.5946 33.9644 34.8646 33.6059 35.1372C31.205 36.9627 29.6466 39.7201 29.3304 42.7024C29.221 43.121 29.0262 43.2418 28.5981 43.1622C27.1564 42.6679 25.8596 42.0441 24.7018 41.2882L28.1868 37.8031C28.5415 37.4483 28.5415 36.8733 28.1868 36.5186C27.832 36.1641 27.2571 36.1641 26.9024 36.5186L23.2296 40.1914C22.6321 39.685 22.0806 39.1335 21.5741 38.5361L25.2469 34.8633C25.6016 34.5085 25.6016 33.9335 25.2469 33.5789C24.8921 33.2243 24.3172 33.2243 23.9625 33.5789L20.4774 37.0639C19.7214 35.906 19.0978 34.6092 18.6035 33.1677C18.5239 32.7392 18.6445 32.5448 19.0633 32.4353C20.605 32.2719 22.0708 31.7892 23.4194 31.0007C23.8524 30.7474 23.9982 30.1911 23.745 29.7582C23.4917 29.3251 22.9351 29.1797 22.5026 29.4326C21.3775 30.0904 20.156 30.4929 18.8719 30.629C18.1527 30.7052 17.517 31.0987 17.1283 31.7087C16.7377 32.3217 16.6492 33.0682 16.8853 33.7569C18.7699 39.2533 22.5125 42.9958 28.0089 44.8805C28.6929 45.1154 29.4423 45.0297 30.057 44.6374C30.6669 44.2486 31.0605 43.613 31.1367 42.8939C31.4003 40.4073 32.7009 38.1073 34.705 36.5834C35.0856 36.2943 35.4471 36.0068 35.7796 35.7292C37.2467 34.5052 38.1377 32.7031 38.2241 30.7852C38.2389 30.4569 38.2281 30.13 38.1967 29.8063L41.9756 26.0273C41.9765 26.0265 41.9773 26.0259 41.9782 26.025ZM41.6662 16.4309C42.6777 15.4196 44.3235 15.4196 45.3348 16.4309C46.3462 17.4423 46.3462 19.0878 45.3348 20.0993L41.3358 24.0982L37.6674 20.4298L41.6662 16.4309ZM36.202 25.5736L36.1921 25.5637C35.5596 24.9313 34.8144 24.4357 34.0058 24.0915L36.383 21.7142L40.0514 25.3826L37.6741 27.76C37.33 26.9514 36.8344 26.2062 36.202 25.5736Z" fill="white"/>
<path d="M18.19 22.8858L19.1858 23.4304L19.7302 24.426C20.0016 24.9225 20.5218 25.2309 21.0876 25.2309H21.0878C21.6536 25.2309 22.1738 24.9225 22.4453 24.4261L22.9898 23.4304L23.9856 22.8858C24.4821 22.6143 24.7904 22.0941 24.7904 21.5282C24.7904 20.9625 24.4819 20.4423 23.9856 20.1708L22.9898 19.6262L22.4453 18.6305C22.1738 18.1339 21.6536 17.8257 21.0876 17.8257C20.5218 17.8257 20.0016 18.1342 19.7304 18.6305L19.1858 19.6262L18.19 20.1708C17.6936 20.4423 17.3853 20.9625 17.3853 21.5282C17.3853 22.0941 17.6937 22.6143 18.19 22.8858ZM20.1268 21.1819C20.3868 21.0395 20.5993 20.8269 20.7415 20.567L21.0877 19.9339L21.4339 20.567C21.5762 20.8271 21.7888 21.0397 22.0489 21.182L22.6821 21.5284L22.0489 21.8746C21.7888 22.0169 21.5762 22.2295 21.4339 22.4896L21.0877 23.1227L20.7415 22.4896C20.5993 22.2297 20.3868 22.0171 20.1264 21.8746L19.4933 21.5282L20.1268 21.1819Z" fill="white"/>
<path d="M41.4366 34.8321L42.4323 35.3765L42.9769 36.3723C43.2484 36.8688 43.7686 37.1771 44.3345 37.1771C44.9003 37.1771 45.4205 36.8687 45.692 36.3723L46.2365 35.3767L47.2322 34.8321C47.7286 34.5606 48.0369 34.0404 48.0369 33.4746C48.0369 32.9088 47.7285 32.3886 47.2322 32.1171L46.2364 31.5724L45.692 30.5768C45.4205 30.0803 44.9003 29.772 44.3345 29.772C43.7686 29.772 43.2484 30.0804 42.9769 30.5768L42.4324 31.5725L41.4366 32.1171C40.9401 32.3886 40.6318 32.9088 40.6318 33.4746C40.6317 34.0404 40.9401 34.5606 41.4366 34.8321ZM43.373 33.1283C43.6331 32.986 43.8458 32.7734 43.9881 32.5133L44.3343 31.8801L44.6805 32.5133C44.8226 32.7733 45.0354 32.986 45.2956 33.1283L45.9287 33.4745L45.2956 33.8207C45.0355 33.963 44.8228 34.1758 44.6805 34.4359L44.3343 35.069L43.9881 34.4359C43.8458 34.1757 43.633 33.9629 43.373 33.8207L42.7398 33.4745L43.373 33.1283Z" fill="white"/>
<path d="M20.5589 42.7443L19.5632 42.1997L19.0186 41.204C18.7471 40.7075 18.2269 40.3992 17.6612 40.3992C17.0953 40.3992 16.5751 40.7076 16.3036 41.204L15.759 42.1997L14.7633 42.7443C14.2667 43.0158 13.9585 43.536 13.9585 44.102C13.9585 44.6677 14.267 45.1879 14.7633 45.4592L15.759 46.0037L16.3036 46.9995C16.5751 47.496 17.0953 47.8043 17.6612 47.8043C18.2269 47.8043 18.7471 47.4959 19.0186 46.9995L19.5632 46.0037L20.5589 45.4592C21.0553 45.1878 21.3637 44.6677 21.3637 44.102C21.3638 43.5361 21.0555 43.0159 20.5589 42.7443ZM18.6225 44.4481C18.3623 44.5905 18.1495 44.8032 18.0075 45.0631L17.6612 45.6963L17.3148 45.0628C17.1724 44.8029 16.9598 44.5903 16.6999 44.4482L16.0669 44.102L16.6999 43.7558C16.96 43.6135 17.1727 43.4008 17.315 43.1407L17.6613 42.5075L18.0071 43.14C18.1492 43.4004 18.3621 43.6132 18.6225 43.7558L19.2556 44.102L18.6225 44.4481Z" fill="white"/>
</svg>
