<svg width="92" height="96" viewBox="0 0 92 96" fill="none" xmlns="http://www.w3.org/2000/svg">
<path d="M65.4658 22.4033V31.5704H70.2798V44.3181C70.2798 44.3181 77.7297 43.6631 77.7297 32.712V22.4033H65.4658Z" fill="#E7BB16"/>
<path d="M47.1841 22.4033V31.5704H51.9981V44.3181C51.9981 44.3181 59.4479 43.6631 59.4479 32.712V22.4033H47.1841Z" fill="#E7BB16"/>
<path d="M26.5222 55.0688V64.2357H21.7081V76.9832C21.7081 76.9832 14.2583 76.3281 14.2583 65.3773V55.0688H26.5222Z" fill="#E7BB16"/>
<path d="M44.8073 55.0688V64.2357H39.9933V76.9832C39.9933 76.9832 32.5435 76.3281 32.5435 65.3773V55.0688H44.8073Z" fill="#E7BB16"/>
<path d="M87.9572 47.4223C90.6044 42.7172 92 37.3671 92 31.8969C92 14.7976 78.4886 0.88623 61.8808 0.88623C45.273 0.88623 31.7614 14.7976 31.7614 31.8969C31.7614 32.4636 31.7765 33.0321 31.8063 33.5991C31.2478 33.5673 30.6852 33.5508 30.1192 33.5508C13.5114 33.5508 0 47.4622 0 64.5613C0 70.0315 1.39563 75.3816 4.04279 80.0868L2.11923 87.4775C1.96255 88.0793 2.11097 88.7217 2.51383 89.1866C2.91669 89.6518 3.51972 89.8763 4.11862 89.7853L11.1893 88.7064L11.8856 89.2434C17.165 93.3837 23.4701 95.572 30.1192 95.572C46.727 95.572 60.2386 81.6606 60.2386 64.5613C60.2386 63.9902 60.2233 63.4229 60.1937 62.8592C60.7558 62.8912 61.3194 62.9073 61.8808 62.9073C68.5299 62.9073 74.835 60.719 80.1027 56.5877L80.8107 56.0416L87.8814 57.1205C88.4805 57.2121 89.0833 56.987 89.4862 56.5219C89.889 56.057 90.0373 55.4145 89.8808 54.8127L87.9572 47.4223ZM30.1192 91.8734C24.2637 91.8734 18.7118 89.9467 14.0521 86.2924L12.7443 85.284C12.4315 85.0428 12.0531 84.9147 11.6669 84.9147C11.5792 84.9147 11.4912 84.9213 11.4033 84.9347L6.29859 85.7136L7.71021 80.289C7.83779 79.7983 7.76376 79.2752 7.50537 78.8422C4.94644 74.5558 3.59375 69.6176 3.59375 64.5613C3.59375 49.5015 15.493 37.2493 30.1192 37.2493C44.7454 37.2493 56.6449 49.5013 56.6449 64.5613C56.6449 79.6213 44.7456 91.8734 30.1192 91.8734ZM84.2894 47.6244L85.7011 53.049L80.5963 52.2701C80.1219 52.198 79.6391 52.3235 79.2553 52.6194L77.9359 53.6369C73.2879 57.282 67.7361 59.2088 61.8804 59.2088C61.1789 59.2088 60.4736 59.1801 59.7747 59.1239C57.5774 46.3861 47.8019 36.3113 35.4351 34.0344C35.3819 33.3244 35.355 32.6091 35.355 31.8968C35.3551 16.8369 47.2544 4.58489 61.8808 4.58489C76.507 4.58489 88.4062 16.8369 88.4062 31.8969C88.4062 36.9532 87.0536 41.8915 84.4943 46.178C84.2359 46.6108 84.1618 47.1338 84.2894 47.6244Z" fill="#E7BB16"/>
</svg>
