<svg width="40" height="40" viewBox="0 0 40 40" fill="none" xmlns="http://www.w3.org/2000/svg">
<path d="M24 13C25.5913 13 27.1174 13.6321 28.2426 14.7574C29.3679 15.8826 30 17.4087 30 19V26H26V19C26 18.4696 25.7893 17.9609 25.4142 17.5858C25.0391 17.2107 24.5304 17 24 17C23.4696 17 22.9609 17.2107 22.5858 17.5858C22.2107 17.9609 22 18.4696 22 19V26H18V19C18 17.4087 18.6321 15.8826 19.7574 14.7574C20.8826 13.6321 22.4087 13 24 13V13Z" stroke="#FFDE61" stroke-width="2" stroke-linecap="round" stroke-linejoin="round"/>
<path d="M14 14H10V26H14V14Z" stroke="#FFDE61" stroke-width="2" stroke-linecap="round" stroke-linejoin="round"/>
<path d="M12 22C13.1046 22 14 21.1046 14 20C14 18.8954 13.1046 18 12 18C10.8954 18 10 18.8954 10 20C10 21.1046 10.8954 22 12 22Z" stroke="#FFDE61" stroke-width="2" stroke-linecap="round" stroke-linejoin="round"/>
<circle cx="20" cy="20" r="19" stroke="#FFDE61" stroke-width="2"/>
</svg>
